# xmcd
#
# Track frame offsets: 
#        150
#        15902
#        32910
#        50347
#        66387
#        80170
#        98607
#        116452
#        131225
#        146657
#        161887
#        175534
#        189305
#        202470
#
# Disc length: 2963 seconds
#
# Revision: 0
# Processed by: cddbd v1.5.2PL0 Copyright (c) Steve Scherf et al.
# Submitted via: ExactAudioCopy v0.99pb5
#
DISCID=c70b910e
DTITLE=Various Artist - Master Source Music Catalog - Volume 6 - CD 9
DYEAR=2001
DGENRE=Blues
TTITLE0=What She Sees In me
TTITLE1=Give it To Me Baby
TTITLE2=Come Back to Me
TTITLE3=Keep On Playin' The Blues
TTITLE4=Bad News Baby
TTITLE5=Dark Cloud
TTITLE6=Out On The Run
TTITLE7=Rush Hour
TTITLE8=travelin' Blues
TTITLE9=Way Down the River
TTITLE10=Love Walks In
TTITLE11=Back Porch Blues
TTITLE12=Sassy Little Woman
TTITLE13=Go Ahead And Cry
EXTD=
EXTT0=
EXTT1=
EXTT2=
EXTT3=
EXTT4=
EXTT5=
EXTT6=
EXTT7=
EXTT8=
EXTT9=
EXTT10=
EXTT11=
EXTT12=
EXTT13=
PLAYORDER=
